<svg id="logo" xmlns="http://www.w3.org/2000/svg" viewBox="0 0 583.96 299.78"><path d="M59.06,0V.75a21,21,0,0,0-15.14,6,19.56,19.56,0,0,0-6.17,14.58V277a12.13,12.13,0,0,0,12.34,12.33H555.55A31.1,31.1,0,0,0,573.31,283a23.13,23.13,0,0,0,9.53-15.33H584l-3.74,32.15h-.75a5.83,5.83,0,0,0-5.23-5.23H0v-1.13a21.25,21.25,0,0,0,15.14-5.79,19.37,19.37,0,0,0,6.17-14.76V21.68A20,20,0,0,0,15.14,6.73,21,21,0,0,0,0,.75V0Z"/><path d="M73.23,0H121V.91A17.21,17.21,0,0,0,108.78,5.6a15.68,15.68,0,0,0-5,12V175.47a63.76,63.76,0,0,0,4.08,22.84,58.42,58.42,0,0,0,11.2,18.6,55.29,55.29,0,0,0,16.49,12.56,44,44,0,0,0,20,4.69,44.64,44.64,0,0,0,20.27-4.69,55.54,55.54,0,0,0,16.49-12.56,58.21,58.21,0,0,0,11.19-18.6,63.54,63.54,0,0,0,4.09-22.84V16.34a13.83,13.83,0,0,0-5.14-11.2A18.51,18.51,0,0,0,190.31.91V0h39V.91a18.46,18.46,0,0,0-12.1,4.23,13.8,13.8,0,0,0-5.14,11.2V177.89a57.84,57.84,0,0,1-4.84,23.44A61.3,61.3,0,0,1,175,233.55a60.69,60.69,0,0,1-47.5,0,61.3,61.3,0,0,1-32.22-32.22,57.67,57.67,0,0,1-4.84-23.44V17.24a15.33,15.33,0,0,0-5-11.64A17.21,17.21,0,0,0,73.23.91Z"/><path d="M403.76,0V.91a18.08,18.08,0,0,0-12.11,4.38,14.23,14.23,0,0,0-5.14,11.35V238.39h-4.23L273.37,16.94V222.06a14.19,14.19,0,0,0,5.14,11.34,18,18,0,0,0,12.1,4.39v.6h-39v-.6a18,18,0,0,0,12.1-4.39,14.2,14.2,0,0,0,5.15-11.34V17.55a15.71,15.71,0,0,0-5-12A17.23,17.23,0,0,0,251.58.91V0H277.9L382.28,212.38v-196A13.65,13.65,0,0,0,377,5.14,19.06,19.06,0,0,0,364.73.91V0Z"/><path d="M404.36,237.79a22.36,22.36,0,0,0,14.07-4.54,21.05,21.05,0,0,0,7.71-12.4l50.22-190a27.89,27.89,0,0,0-.3-15.73Q473.65,7.26,471.83,0h16.94q-.91,3.33-1.51,5.9a11.84,11.84,0,0,0,.3,5.9l56,211.47c.19.4.65,1.41,1.36,3a17.58,17.58,0,0,0,3.48,5,21.66,21.66,0,0,0,6.5,4.54,22.35,22.35,0,0,0,9.83,2v.6H521.44v-.6a13.2,13.2,0,0,0,6-1.82A9.56,9.56,0,0,0,531,232.5c.91-1.52,1-3.68.15-6.51L504.2,124H456.4l-26.93,101c-.81,2.83-.75,5.1.15,6.81A11.46,11.46,0,0,0,433.1,236a13.2,13.2,0,0,0,6,1.82v.6H404.36Zm52.94-118H503L480.3,32.37Z"/><circle cx="150.92" cy="175.73" r="59.94"/></svg>